<svg width="86" height="25" viewBox="0 0 86 25" fill="none" xmlns="http://www.w3.org/2000/svg">
<path d="M11.9545 7.92236C11.7524 7.90547 11.4979 7.88672 11.1778 7.88672C8.6945 7.88672 7.06077 8.96015 6.27853 11.122L6.54801 8.30708H4.26678C3.57696 8.31251 2.91329 8.57243 2.40243 9.0373C1.89157 9.50217 1.5693 10.1394 1.49712 10.8274L0 24.8909H2.29808C2.98822 24.8859 3.65234 24.6262 4.16359 24.1613C4.67485 23.6963 4.9974 23.0589 5.06962 22.3706L5.64413 16.8195C5.708 16.1779 5.83782 15.5446 6.03151 14.9297C6.2176 14.5008 6.48738 14.1134 6.82498 13.7906C7.19322 13.3832 7.64536 13.0609 8.15009 12.8461C8.65481 12.6313 9.20007 12.529 9.74811 12.5464C10.3131 12.5601 10.8746 12.6401 11.4211 12.7847L12.7554 8.09312C12.4928 8.01744 12.2251 7.96039 11.9545 7.92236V7.92236Z" fill="black"/>
<path d="M22.1361 7.32422C19.4488 7.32422 17.1694 8.3113 15.2775 10.2536C14.3602 11.1724 13.6362 12.2666 13.1485 13.4713C12.6609 14.676 12.4194 15.9666 12.4386 17.2666C12.4386 19.6331 13.1478 21.4891 14.5663 22.8515C15.9848 24.2139 17.9124 24.8951 20.3789 24.8951C21.8865 24.9251 23.3834 24.6348 24.7711 24.0431C26.0211 23.4801 27.2544 22.5287 28.4876 21.2L28.555 21.1325L26.5788 19.6499C26.2817 19.4166 25.9143 19.2914 25.5369 19.2948C25.1595 19.2982 24.7945 19.4301 24.5016 19.6687C24.1457 19.9654 23.7706 20.2381 23.3787 20.485C22.4318 21.048 21.5541 21.337 20.727 21.337C20.2387 21.3548 19.752 21.2733 19.2959 21.0976C18.8399 20.9218 18.424 20.6554 18.0733 20.3143C17.3641 19.6331 17.0253 18.7322 17.0253 17.6081H29.4102C29.4378 17.213 29.4941 16.8204 29.5787 16.4334C29.6272 16.0888 29.6553 15.7417 29.6629 15.3937C29.6629 12.926 28.9873 10.9517 27.6362 9.50297C26.285 8.0542 24.466 7.32422 22.1361 7.32422ZM17.3379 14.476C17.7121 13.3013 18.2698 12.3986 19.0109 11.7681C19.7488 11.1357 20.6922 10.7965 21.6627 10.8147C22.6938 10.8147 23.5041 11.1375 24.0786 11.785C24.6532 12.4324 24.975 13.3351 24.975 14.476H17.3379Z" fill="black"/>
<path d="M45.6335 2.52421L44.8663 9.92941C44.0391 8.19352 42.5177 7.34152 40.2888 7.34152C37.8728 7.34152 35.8106 8.31175 34.1132 10.2541C32.4159 12.1964 31.5625 14.544 31.5625 17.2839C31.5625 19.6522 32.1707 21.5064 33.3703 22.8519C34.5698 24.1975 36.2092 24.8787 38.2696 24.8787C40.8035 24.8787 42.5738 23.9404 43.5918 22.1032L43.356 24.8787H45.6691C47.0895 24.8787 48.289 23.2779 48.4406 21.8479L50.7219 0.00390625H48.4051C47.7149 0.0088732 47.0508 0.268618 46.5395 0.733531C46.0283 1.19844 45.7057 1.83592 45.6335 2.52421ZM43.2849 19.2769C42.8928 19.7578 42.3975 20.1436 41.836 20.4059C41.2745 20.6681 40.6612 20.7999 40.0418 20.7914C38.919 20.7914 38.0319 20.4348 37.39 19.7198C36.7481 19.0048 36.4094 18.0177 36.4094 16.7735V16.1955C36.5778 14.7824 37.0682 13.6414 37.9065 12.7556C38.295 12.3328 38.7683 11.9971 39.2953 11.7707C39.8223 11.5443 40.3911 11.4323 40.9644 11.442C42.061 11.442 42.9406 11.7986 43.5993 12.5304C44.2581 13.2623 44.5968 14.2513 44.5968 15.4598C44.5874 16.9949 44.1645 18.2561 43.2849 19.2769V19.2769Z" fill="black"/>
<path d="M53.6911 2.52423L51.3594 24.8956H53.6743C54.3673 24.8948 55.0356 24.6369 55.5504 24.1716C56.0652 23.7063 56.3901 23.0665 56.4627 22.3753L56.8669 18.4775L57.0035 17.1488L57.1551 15.6156L57.3572 13.7259L58.7776 0.00392085H56.4664C55.7738 0.001674 55.1054 0.258818 54.592 0.725023C54.0786 1.19123 53.7574 1.83288 53.6911 2.52423Z" fill="black"/>
<path d="M61.0228 9.8082L60.5999 13.7491L60.3959 15.6295L60.2275 17.1458L60.0909 18.4745L59.3984 24.9095H61.7059C62.3978 24.9012 63.0625 24.6381 63.5736 24.1702C64.0846 23.7024 64.4063 23.0625 64.4774 22.3723L66.0307 7.30476H63.8018C63.1109 7.29989 62.443 7.55387 61.929 8.01692C61.4149 8.47998 61.0918 9.11876 61.0228 9.8082V9.8082Z" fill="black"/>
<path d="M66.2485 0.751003C65.7223 0.258021 65.026 -0.0110719 64.306 0.000349237C63.5247 -0.0109888 62.7669 0.267717 62.1782 0.782891C61.9025 1.00018 61.6789 1.27667 61.5238 1.59201C61.3687 1.90734 61.286 2.2535 61.2818 2.6051C61.2743 2.94608 61.3417 3.28454 61.4792 3.59652C61.6166 3.90849 61.8208 4.18636 62.0772 4.41044C62.5971 4.90043 63.2896 5.16362 64.0028 5.14231C64.7962 5.1685 65.5714 4.90134 66.1811 4.39166C66.4574 4.17606 66.6805 3.89956 66.833 3.58355C66.9856 3.26754 67.0635 2.92052 67.0607 2.56945C67.0645 2.22547 66.9939 1.88475 66.8537 1.57079C66.7135 1.25684 66.507 0.977149 66.2485 0.751003V0.751003Z" fill="black"/>
<path fill-rule="evenodd" clip-rule="evenodd" d="M79.9717 7.81629C79.1036 7.57789 78.2069 7.46109 77.3068 7.46914C74.7393 7.46914 72.5254 8.30423 70.684 9.93877C69.4827 10.9901 68.5693 12.3318 68.0303 13.8365C67.6521 14.902 67.4621 16.0254 67.4689 17.1563V17.207C67.4689 19.5227 68.2175 21.4125 69.6809 22.8369C71.1443 24.2612 73.0943 25.0006 75.4822 25.0006C78.2519 25.0006 80.5886 24.0623 82.4925 22.1857C84.4032 20.3091 85.3482 17.9801 85.3482 15.2215C85.3569 14.3521 85.2365 13.4862 84.9908 12.6524C84.5119 12.8661 83.9935 12.9761 83.4694 12.9752C82.856 12.9718 82.2527 12.8187 81.7115 12.5292C81.1704 12.2397 80.7076 11.8224 80.3633 11.3134C80.019 10.8044 79.8034 10.219 79.7351 9.60775C79.6669 8.9965 79.7481 8.37776 79.9717 7.80502V7.81629ZM75.8696 20.9115C76.519 20.9222 77.163 20.7925 77.7578 20.5312C78.3527 20.2698 78.8844 19.883 79.3167 19.397C80.2637 18.3911 80.7184 17.1319 80.7184 15.6343C80.7184 14.4427 80.3441 13.4725 79.6218 12.7218C78.9275 11.9562 77.9824 11.5827 76.8334 11.5827C76.2359 11.5782 75.6434 11.6919 75.0898 11.9173C74.5362 12.1427 74.0323 12.4754 73.6071 12.8964C72.6804 13.7912 72.1047 14.9898 71.9846 16.2743V16.8541C71.9846 18.0458 72.3402 19.016 73.0494 19.7817C73.7587 20.5474 74.7037 20.9115 75.8696 20.9115Z" fill="black"/>
<path d="M85.6211 9.2008C85.6185 9.62596 85.4904 10.0408 85.253 10.393C85.0155 10.7453 84.6794 11.0192 84.287 11.1801C83.8945 11.341 83.4633 11.3817 83.0478 11.2972C82.6323 11.2126 82.2511 11.0066 81.9522 10.705C81.6533 10.4035 81.4502 10.02 81.3684 9.60279C81.2867 9.18561 81.3299 8.75345 81.4928 8.3609C81.6556 7.96834 81.9307 7.63296 82.2834 7.39701C82.6361 7.16107 83.0506 7.03516 83.4746 7.03516C83.7574 7.03589 84.0372 7.09249 84.2982 7.20174C84.5591 7.311 84.796 7.47079 84.9954 7.67191C85.1947 7.87303 85.3526 8.11157 85.4599 8.37391C85.5673 8.63624 85.6221 8.91723 85.6211 9.2008V9.2008Z" fill="#FFB211"/>
</svg>
